<svg xmlns="http://www.w3.org/2000/svg" width="44" height="97" viewBox="0 0 44 97">
  <g id="Group_1" data-name="Group 1" transform="translate(-154 -168)">
    <path id="Exclusion_1" data-name="Exclusion 1" d="M-314-238h-44v-69h44v69Zm-22-59a4,4,0,0,0-4,4v49h8v-49A4,4,0,0,0-336-297Z" transform="translate(512 475)" fill="#fff"/>
    <circle id="Ellipse_2" data-name="Ellipse 2" cx="13" cy="13" r="13" transform="translate(163 234)" fill="#eb5757"/>
    <ellipse id="Ellipse_3" data-name="Ellipse 3" cx="5.5" cy="4" rx="5.5" ry="4" transform="translate(173 249)" fill="#fff"/>
    <g id="Rectangle_1" data-name="Rectangle 1" transform="translate(168 174)" fill="none" stroke="#4f4f4f" stroke-width="3">
      <path d="M8,0H8a8,8,0,0,1,8,8V59a0,0,0,0,1,0,0H0a0,0,0,0,1,0,0V8A8,8,0,0,1,8,0Z" stroke="none"/>
      <path d="M8,1.5H8A6.5,6.5,0,0,1,14.5,8V56.2a1.3,1.3,0,0,1-1.3,1.3H2.8a1.3,1.3,0,0,1-1.3-1.3V8A6.5,6.5,0,0,1,8,1.5Z" fill="none"/>
    </g>
    <path id="Path_1" data-name="Path 1" d="M529.148,541.459l.286-3.415,3.666-1.714,5.144,1.714.922,6-12.85.821" transform="translate(-358 -307)" fill="#eb5757"/>
    <g id="Ellipse_1" data-name="Ellipse 1" transform="translate(158 229)" fill="none" stroke="#4f4f4f" stroke-width="3">
      <circle cx="18" cy="18" r="18" stroke="none"/>
      <circle cx="18" cy="18" r="16.5" fill="none"/>
    </g>
  </g>
</svg>
